<svg id="Capa_1" enable-background="new 0 0 512 512" height="512" viewBox="0 0 512 512" width="512" xmlns="http://www.w3.org/2000/svg"><g><path d="m429.201 48.417-75.316-47.27c-1.196-.75-2.578-1.147-3.988-1.147h-121.992c-4.142 0-7.5 3.357-7.5 7.5s3.358 7.5 7.5 7.5h116.223l13.76 51.799c.957 3.6 3.264 6.601 6.496 8.449 3.236 1.851 6.997 2.316 10.575 1.316l42.754-11.918v86.228h-323.426v-135.801c0-.04.033-.073.074-.073h103.557c4.142 0 7.5-3.357 7.5-7.5s-3.358-7.5-7.5-7.5h-103.558c-8.312 0-15.074 6.762-15.074 15.073v481.853c0 8.312 6.762 15.074 15.074 15.074h323.279c8.312 0 15.074-6.763 15.074-15.074v-37.772c0-4.143-3.357-7.5-7.5-7.5s-7.5 3.357-7.5 7.5v37.772c0 .04-.034.074-.074.074h-323.279c-.041 0-.074-.033-.074-.074v-331.052h323.427v263.293c0 4.143 3.357 7.5 7.5 7.5s7.5-3.357 7.5-7.5v-374.397c0-2.582-1.327-4.981-3.512-6.353zm-57.121 13.378-10.047-37.824 44.822 28.131z"/><path d="m215.119 125.666c4.142 0 7.5-3.357 7.5-7.5v-70.459c0-4.143-3.358-7.5-7.5-7.5s-7.5 3.357-7.5 7.5v70.459c0 4.143 3.358 7.5 7.5 7.5z"/><path d="m271.766 55.466c4.143 0 7.5-3.357 7.5-7.5s-3.357-7.5-7.5-7.5h-28.348c-4.142 0-7.5 3.357-7.5 7.5v69.942c0 4.143 3.358 7.5 7.5 7.5s7.5-3.357 7.5-7.5v-28.134h18.596c4.143 0 7.5-3.357 7.5-7.5s-3.357-7.5-7.5-7.5h-18.596v-19.308z"/><path d="m158.958 55.207c5.557 0 10.916 1.636 15.499 4.731 3.434 2.318 8.095 1.416 10.413-2.017 2.319-3.433 1.416-8.095-2.017-10.413-7.072-4.777-15.334-7.302-23.895-7.302-23.561 0-42.729 19.168-42.729 42.729s19.168 42.729 42.729 42.729c22.322 0 37.912-17.571 37.912-42.729 0-4.143-3.358-7.5-7.5-7.5h-21.078c-4.142 0-7.5 3.357-7.5 7.5s3.358 7.5 7.5 7.5h12.876c-2.012 10.487-8.553 20.229-22.21 20.229-15.29 0-27.729-12.439-27.729-27.729s12.438-27.728 27.729-27.728z"/><path d="m219.632 411.953c-3.865-1.501-8.208.42-9.703 4.283-1.497 3.862.421 8.207 4.283 9.703 8.386 3.249 17.185 5.36 26.154 6.273.258.025.515.039.769.039 3.8 0 7.059-2.879 7.452-6.741.419-4.121-2.581-7.802-6.702-8.222-7.632-.775-15.119-2.571-22.253-5.335z"/><path d="m278.705 413.086c-5.429 1.865-11.076 3.188-16.786 3.93-4.107.534-7.004 4.297-6.471 8.404.491 3.779 3.716 6.534 7.428 6.534.322 0 .648-.021.977-.063 6.708-.872 13.346-2.426 19.728-4.619 3.917-1.346 6.002-5.613 4.655-9.53-1.347-3.919-5.612-5.999-9.531-4.656z"/><path d="m305.847 331.68c0-4.777-2.393-9.182-6.4-11.782l-62.167-40.338c-4.323-2.804-9.821-3.02-14.349-.559-4.528 2.459-7.341 7.188-7.341 12.341v80.675c0 5.153 2.813 9.883 7.341 12.342 4.539 2.466 10.034 2.241 14.35-.559l62.166-40.338c4.008-2.601 6.4-7.005 6.4-11.782zm-75.257 38.58v-77.16l59.457 38.58z"/><path d="m309.493 407.133c3.169 2.217 7.236 2.756 10.883 1.425h.002l34.155-12.476c4.176-1.524 7.128-5.21 7.704-9.617.577-4.408-1.328-8.729-4.972-11.277l-11.813-8.262c4.195-11.255 6.324-23.09 6.324-35.246 0-55.724-45.334-101.058-101.057-101.058s-101.057 45.334-101.057 101.058c0 33.729 16.736 65.108 44.769 83.94 1.284.862 2.737 1.275 4.175 1.275 2.414 0 4.785-1.164 6.232-3.318 2.31-3.438 1.395-8.099-2.043-10.408-23.877-16.041-38.133-42.766-38.133-71.489 0-47.452 38.605-86.058 86.057-86.058s86.057 38.605 86.057 86.058c0 9.031-1.391 17.845-4.109 26.305l-9.557-6.684c-3.644-2.548-8.355-2.854-12.297-.801s-6.391 6.091-6.391 10.536v36.362c0 3.875 1.896 7.514 5.071 9.735zm9.929-40.107 24.338 17.021-24.338 8.89z"/></g></svg>