<svg height="511pt" viewBox="-87 1 511 511.999" width="511pt" xmlns="http://www.w3.org/2000/svg"><g fill-rule="evenodd"><path d="m326.824219 178.96875h-42.722657v-63.527344c0-23.390625-7.035156-45.957031-20.34375-65.257812-12.980468-18.824219-30.988281-33.285156-52.078124-41.820313-5.117188-2.070312-10.949219.398438-13.019532 5.519531-2.074218 5.117188.398438 10.949219 5.519532 13.019532 36.398437 14.730468 59.921874 49.480468 59.921874 88.535156v1.207031h-29.757812c-5.523438 0-10 4.476563-10 10 0 5.523438 4.476562 10 10 10h29.757812v42.324219h-29.757812c-5.523438 0-10 4.476562-10 10 0 5.519531 4.476562 10 10 10h29.757812v42.320312h-29.757812c-5.523438 0-10 4.480469-10 10 0 5.523438 4.476562 10 10 10h29.757812v1.207032c0 39.054687-23.519531 73.804687-59.921874 88.535156-5.121094 2.070312-7.59375 7.902344-5.519532 13.019531 1.574219 3.894531 5.316406 6.253907 9.273438 6.253907 1.246094 0 2.519531-.234376 3.746094-.734376 21.089843-8.53125 39.097656-22.992187 52.078124-41.816406 13.308594-19.300781 20.34375-41.867187 20.34375-65.257812v-63.527344h32.71875v63.527344c0 81.695312-66.464843 148.160156-148.160156 148.160156-81.695312 0-148.160156-66.464844-148.160156-148.160156v-63.527344h32.71875v63.527344c0 23.390625 7.035156 45.957031 20.347656 65.257812 12.976563 18.824219 30.984375 33.285156 52.074219 41.820313 1.230469.496093 2.5.730469 3.75.730469 3.949219 0 7.695313-2.359376 9.269531-6.25 2.074219-5.121094-.398437-10.949219-5.515625-13.019532-36.402343-14.730468-59.925781-49.484375-59.925781-88.539062v-1.203125h29.757812c5.523438 0 10-4.476563 10-10 0-5.523438-4.476562-10-10-10h-29.757812v-42.324219h29.757812c5.523438 0 10-4.476562 10-10s-4.476562-10-10-10h-29.757812v-42.324219h29.757812c5.523438 0 10-4.476562 10-10 0-5.519531-4.476562-10-10-10h-29.757812v-1.203125c0-39.054687 23.523438-73.808594 59.925781-88.539062 5.117188-2.070313 7.589844-7.898438 5.515625-13.019532-2.070312-5.121093-7.902344-7.589843-13.019531-5.519531-21.089844 8.535157-39.097656 22.996094-52.078125 41.820313-13.308594 19.300781-20.34375 41.867187-20.34375 65.257812v63.527344h-42.71875c-5.523438 0-10 4.480469-10 10v73.527344c0 44.742187 17.539062 86.925781 49.386719 118.773437 29.46875 29.464844 67.773437 46.667969 108.773437 49.082031v61.648438h-61.859375c-5.519531 0-10 4.476562-10 10s4.480469 10 10 10h143.722657c5.519531 0 10-4.476562 10-10s-4.480469-10-10-10h-61.863282v-61.648438c41-2.414062 79.308594-19.617187 108.773438-49.082031 31.847656-31.851562 49.390625-74.03125 49.390625-118.773437v-73.527344c0-5.523438-4.480469-10-10-10zm0 0"/><path d="m168.660156 20c5.507813 0 10-4.492188 10-10s-4.492187-10-10-10c-5.507812 0-10 4.492188-10 10s4.492188 10 10 10zm0 0"/><path d="m168.660156 377.9375c5.507813 0 10-4.492188 10-10s-4.492187-10-10-10c-5.507812 0-10 4.492188-10 10s4.492188 10 10 10zm0 0"/></g></svg>